<svg id="visual" viewBox="0 0 900 600" width="900" height="600" xmlns="http://www.w3.org/2000/svg" xmlns:xlink="http://www.w3.org/1999/xlink" version="1.1"><g transform="translate(808.4602334301213 133.92778644147793)"><path d="M245.7 -373.6C378.8 -348.8 588.7 -404.9 610.3 -356.1C632 -307.3 465.5 -153.7 376 -51.7C286.5 50.3 274 100.7 278.3 194.3C282.5 288 303.5 425 259.9 449C216.3 473 108.2 384 16.9 354.7C-74.3 325.4 -148.7 355.8 -166.3 316.8C-183.9 277.8 -144.7 169.4 -198 105C-251.4 40.6 -397.2 20.3 -424.2 -15.6C-451.2 -51.5 -359.4 -103 -350.2 -243.7C-340.9 -384.5 -414.2 -614.4 -369.6 -690.3C-325 -766.2 -162.5 -688.1 -53.1 -596.2C56.3 -504.2 112.7 -398.5 245.7 -373.6" fill="none" stroke="#FE6D73" stroke-width="6"></path></g></svg>