<svg id="visual" viewBox="0 0 900 600" width="900" height="600" xmlns="http://www.w3.org/2000/svg" xmlns:xlink="http://www.w3.org/1999/xlink" version="1.1"><g transform="translate(395.63452049687163 255.892992244561)"><path d="M75.2 -117.3C104.6 -98.1 140.5 -89.3 172.3 -65.3C204.1 -41.3 231.7 -2 214.9 22.3C198.1 46.7 136.8 56.1 104.2 85.9C71.5 115.6 67.5 165.8 40.8 202.8C14.1 239.9 -35.2 263.9 -62.7 242.5C-90.1 221.1 -95.7 154.5 -94 108.3C-92.3 62.1 -83.3 36.4 -88.8 11.5C-94.4 -13.4 -114.5 -37.4 -110.8 -52.7C-107.1 -67.9 -79.5 -74.3 -57 -96.8C-34.6 -119.2 -17.3 -157.6 2.8 -161.9C22.9 -166.3 45.8 -136.6 75.2 -117.3" fill="#1B998B"></path></g></svg>