<svg id="visual" viewBox="0 0 900 600" width="900" height="600" xmlns="http://www.w3.org/2000/svg" xmlns:xlink="http://www.w3.org/1999/xlink" version="1.1"><g transform="translate(15.954121069514542 566.6172817297056)"><path d="M298.5 -449.1C326.7 -446.4 248 -261.8 245.2 -147.3C242.5 -32.9 315.7 11.5 302.5 37.4C289.3 63.3 189.6 70.6 148.1 140.6C106.5 210.6 123.1 343.2 79.8 426.8C36.4 510.5 -66.9 545 -115.2 487.4C-163.6 429.8 -157 280.1 -200.2 193.8C-243.5 107.5 -336.5 84.6 -336.5 51.5C-336.4 18.3 -243.3 -25.1 -210 -95.1C-176.8 -165.2 -203.6 -261.8 -178.6 -266C-153.5 -270.2 -76.8 -182 29.2 -227.4C135.2 -272.8 270.3 -451.9 298.5 -449.1" fill="none" stroke="#FE6D73" stroke-width="6"></path></g></svg>