<svg id="visual" viewBox="0 0 900 600" width="900" height="600" xmlns="http://www.w3.org/2000/svg" xmlns:xlink="http://www.w3.org/1999/xlink" version="1.1"><g transform="translate(457.4322654996073 318.09186320692834)"><path d="M129.8 -173.8C160.1 -129.2 171.2 -80.7 170 -37.4C168.8 5.9 155.4 44 141 93.2C126.6 142.4 111.2 202.7 78.9 212.7C46.6 222.7 -2.5 182.3 -47.8 155.4C-93 128.4 -134.4 115 -159.1 85.4C-183.8 55.9 -191.9 10.3 -178.6 -25.7C-165.4 -61.8 -130.9 -88.4 -97.6 -132.5C-64.3 -176.6 -32.1 -238.3 8.8 -248.8C49.7 -259.2 99.4 -218.5 129.8 -173.8" fill="#1B998B"></path></g></svg>