<svg id="visual" viewBox="0 0 900 600" width="900" height="600" xmlns="http://www.w3.org/2000/svg" xmlns:xlink="http://www.w3.org/1999/xlink" version="1.1"><g transform="translate(412.8876470472469 343.12979632923214)"><path d="M173.5 -206.6C222.8 -165.5 259.1 -108.8 256.9 -55.1C254.7 -1.4 214 49.3 175.8 88.5C137.7 127.7 102.2 155.5 61.9 170.3C21.5 185.1 -23.6 187 -70.4 177C-117.1 167.1 -165.5 145.3 -178.7 109.5C-191.8 73.7 -169.8 23.8 -161.6 -29.5C-153.3 -82.7 -158.9 -139.4 -134.3 -184.9C-109.7 -230.4 -54.9 -264.7 3.6 -269C62.1 -273.4 124.3 -247.8 173.5 -206.6" fill="#1B998B"></path></g></svg>