<svg id="visual" viewBox="0 0 900 600" width="900" height="600" xmlns="http://www.w3.org/2000/svg" xmlns:xlink="http://www.w3.org/1999/xlink" version="1.1"><g transform="translate(472.05346879961195 246.9390756057508)"><path d="M149.2 -229.5C173 -188 157.8 -117.2 162.1 -62.5C166.4 -7.7 190.2 30.9 207.9 95.7C225.5 160.4 237.1 251.3 201.4 314.2C165.8 377.1 82.9 412.1 -17.3 435.9C-117.6 459.8 -235.1 472.6 -262.2 406.9C-289.3 341.2 -226 197 -195.7 106.9C-165.5 16.7 -168.3 -19.5 -190.9 -96.6C-213.5 -173.8 -255.7 -292 -227.2 -331.9C-198.7 -371.8 -99.3 -333.4 -18.3 -308.2C62.7 -283 125.4 -270.9 149.2 -229.5" fill="none" stroke="#FE6D73" stroke-width="6"></path></g></svg>