<svg id="visual" viewBox="0 0 900 600" width="900" height="600" xmlns="http://www.w3.org/2000/svg" xmlns:xlink="http://www.w3.org/1999/xlink" version="1.1"><g transform="translate(456.37705287754875 311.14778022001104)"><path d="M113.3 -187.4C150.2 -174.9 186 -151.4 191.9 -118.4C197.8 -85.3 173.9 -42.7 162.1 -6.8C150.2 29 150.5 58 147.3 95.8C144.1 133.6 137.6 180.3 112.4 199.3C87.3 218.3 43.7 209.6 6.2 199C-31.3 188.3 -62.7 175.5 -88.9 157.2C-115.2 138.9 -136.4 114.9 -149.1 87.8C-161.7 60.7 -165.9 30.3 -177.6 -6.7C-189.3 -43.8 -208.5 -87.7 -205.2 -131C-201.8 -174.3 -175.9 -217 -138 -229C-100 -240.9 -50 -221.9 -5.9 -211.7C38.2 -201.4 76.3 -199.9 113.3 -187.4" fill="#1B998B"></path></g></svg>