<svg id="visual" viewBox="0 0 900 600" width="900" height="600" xmlns="http://www.w3.org/2000/svg" xmlns:xlink="http://www.w3.org/1999/xlink" version="1.1"><g transform="translate(498.7793218476472 275.5325099878414)"><path d="M77.9 -123.8C109.8 -116.5 150.6 -113.5 162.3 -93.6C173.9 -73.7 156.5 -36.8 143.8 -7.3C131.1 22.2 123.1 44.3 128.4 93.6C133.6 142.8 152.1 219 132.9 231.3C113.7 243.5 56.8 191.8 -0.8 193.2C-58.5 194.7 -117 249.3 -171.1 257.2C-225.3 265.1 -275 226.3 -261.4 175.7C-247.8 125 -170.8 62.5 -170.6 0.1C-170.5 -62.3 -247.2 -124.7 -253.4 -162.5C-259.6 -200.3 -195.3 -213.6 -141.3 -208.1C-87.3 -202.6 -43.7 -178.3 -10.3 -160.4C23 -142.5 46 -131 77.9 -123.8" fill="none" stroke="#FE6D73" stroke-width="6"></path></g></svg>