<svg id="visual" viewBox="0 0 900 600" width="900" height="600" xmlns="http://www.w3.org/2000/svg" xmlns:xlink="http://www.w3.org/1999/xlink" version="1.1"><g transform="translate(445.3276657852457 306.6607670576978)"><path d="M97 -136.7C125.4 -91.7 147.9 -60.9 156.8 -25.4C165.8 10.1 161.3 50.3 146.6 92.9C131.9 135.5 107 180.5 64.7 209.9C22.3 239.3 -37.4 253.1 -75.6 229.7C-113.8 206.2 -130.5 145.6 -139 96.8C-147.4 48 -147.6 11 -150 -35.4C-152.5 -81.7 -157.2 -137.4 -132.6 -183C-108 -228.7 -54 -264.3 -9.9 -252.6C34.3 -240.9 68.6 -181.7 97 -136.7" fill="#1B998B"></path></g></svg>