<svg id="visual" viewBox="0 0 900 600" width="900" height="600" xmlns="http://www.w3.org/2000/svg" xmlns:xlink="http://www.w3.org/1999/xlink" version="1.1"><g transform="translate(46.666339806489646 -34.873985982385136)"><path d="M308.3 -422.7C374.4 -437.3 385.5 -309.2 408.9 -202.9C432.3 -96.6 468.1 -12.1 462.9 70.9C457.8 153.9 411.8 235.4 333.9 244C256 252.6 146.2 188.2 50.5 253.5C-45.2 318.9 -126.7 514 -160.6 517.5C-194.5 521 -180.7 332.8 -269.8 232.4C-358.8 132.1 -550.6 119.4 -556.6 79.8C-562.5 40.3 -382.7 -26.2 -325.9 -148.1C-269.1 -270.1 -335.4 -447.6 -301.6 -447.8C-267.8 -448 -133.9 -270.9 -6.4 -260.9C121.1 -250.9 242.2 -408.1 308.3 -422.7" fill="none" stroke="#FE6D73" stroke-width="6"></path></g></svg>