<svg id="visual" viewBox="0 0 900 600" width="900" height="600" xmlns="http://www.w3.org/2000/svg" xmlns:xlink="http://www.w3.org/1999/xlink" version="1.1"><g transform="translate(470.1765890198413 282.4373374741125)"><path d="M128.6 -184.9C159.1 -154.7 171.4 -107.2 170.6 -65.7C169.9 -24.3 156.3 11 155.1 61.4C153.9 111.8 165.1 177.3 141.3 217.4C117.6 257.5 58.8 272.2 14.3 252.5C-30.2 232.9 -60.3 178.7 -99.5 143.6C-138.6 108.5 -186.8 92.4 -203.6 61.3C-220.3 30.2 -205.7 -16 -189.4 -60.1C-173.1 -104.2 -155 -146.4 -123.2 -176.2C-91.3 -206 -45.7 -223.5 1.7 -225.8C49 -228.1 98 -215.2 128.6 -184.9" fill="#1B998B"></path></g></svg>