<svg id="visual" viewBox="0 0 900 600" width="900" height="600" xmlns="http://www.w3.org/2000/svg" xmlns:xlink="http://www.w3.org/1999/xlink" version="1.1"><g transform="translate(816.6888328598809 697.3696338843575)"><path d="M84.2 -214.9C123.8 -123 180.5 -130 331.9 -110.7C483.2 -91.3 729.1 -45.7 732.3 1.8C735.4 49.3 495.9 98.7 361.5 147.3C227.1 196 197.8 243.9 155.1 244.4C112.3 244.9 56.2 198 -0.7 199.1C-57.5 200.3 -115 249.5 -210.4 279.4C-305.8 309.4 -439.1 319.9 -430.7 270.1C-422.3 220.3 -272.1 110.2 -309.9 -21.8C-347.7 -153.8 -573.5 -307.7 -565.5 -329C-557.6 -350.4 -315.8 -239.3 -182.6 -277C-49.3 -314.8 -24.7 -501.4 -1.2 -499.4C22.3 -497.3 44.7 -306.7 84.2 -214.9" fill="none" stroke="#FE6D73" stroke-width="6"></path></g></svg>