<svg id="visual" viewBox="0 0 900 600" width="900" height="600" xmlns="http://www.w3.org/2000/svg" xmlns:xlink="http://www.w3.org/1999/xlink" version="1.1"><g transform="translate(474.2794475667151 186.9283139468194)"><path d="M143.7 -163.2C200.5 -156.6 270.5 -133.6 343.8 -72.8C417.2 -11.9 493.9 86.7 454.5 129C415.1 171.3 259.6 157.3 164.5 213C69.4 268.8 34.7 394.4 -35.5 443.2C-105.6 492 -211.2 464 -299.2 406C-387.2 347.9 -457.5 259.7 -491.4 158.8C-525.3 58 -522.8 -55.5 -469.1 -131.3C-415.4 -207.1 -310.6 -245.1 -223.9 -241.9C-137.1 -238.8 -68.6 -194.4 -12.5 -177.1C43.5 -159.9 87 -169.7 143.7 -163.2" fill="none" stroke="#FE6D73" stroke-width="6"></path></g></svg>